<svg width="32" height="32" viewBox="0 0 32 32" fill="none" xmlns="http://www.w3.org/2000/svg">
<rect width="32" height="32" fill="#062341"/>
<path d="M27.1746 16.5516C27.1067 16.1119 26.9321 15.7563 26.651 15.4848C26.3698 15.2133 25.9965 15.0775 25.531 15.0775C25.0655 15.0775 24.6897 15.2111 24.4037 15.4784C24.1176 15.7456 23.931 16.1033 23.8436 16.5516H27.1746ZM10.4829 13.6293H12.6854V14.6206C12.811 14.4719 12.9486 14.3319 13.0983 14.1961C13.248 14.0625 13.4147 13.9439 13.5981 13.8384C13.7818 13.7348 13.987 13.653 14.2139 13.5905C14.4409 13.5301 14.6946 13.5 14.9746 13.5C15.4866 13.5 15.9285 13.5948 16.3004 13.7866C16.6723 13.9784 16.9597 14.2499 17.1626 14.6077C17.5006 14.2414 17.8774 13.9676 18.2927 13.7801C18.708 13.5926 19.1815 13.5 19.7127 13.5C20.5337 13.5 21.1761 13.7155 21.6398 14.1465C21.9287 14.4152 22.1278 14.7628 22.2366 15.1891C22.3832 14.9606 22.5552 14.7509 22.7528 14.5603C23.0922 14.2327 23.4971 13.9741 23.9674 13.7845C24.4376 13.5948 24.9588 13.5 25.531 13.5C26.1806 13.5 26.7431 13.6035 27.2182 13.8103C27.6935 14.0171 28.0886 14.2952 28.4037 14.6443C28.7189 14.9935 28.9515 15.3943 29.1019 15.8469C29.2523 16.2995 29.3273 16.7714 29.3273 17.2628C29.3273 17.3404 29.325 17.4222 29.3201 17.5085C29.3153 17.5946 29.3079 17.6852 29.2982 17.78H23.8728C23.9794 18.2282 24.2 18.5666 24.5346 18.795C24.8691 19.0235 25.2837 19.1377 25.7782 19.1377C26.1467 19.1377 26.4764 19.0816 26.7674 18.9696C27.0583 18.8575 27.3589 18.6765 27.6691 18.4265L28.9346 19.4222C28.5661 19.8273 28.12 20.1441 27.5963 20.3725C27.0728 20.6009 26.457 20.7151 25.7492 20.7151C25.1673 20.7151 24.6267 20.629 24.1273 20.4566C23.6279 20.2842 23.1964 20.0385 22.8328 19.7196C22.6458 19.5555 22.4799 19.3761 22.3351 19.1813V20.56H20.1329V16.7024C20.1329 16.2391 20.0218 15.8878 19.7997 15.6529C19.5775 15.4159 19.2587 15.2974 18.8433 15.2974C18.4279 15.2974 18.1019 15.4159 17.8653 15.6529C17.6285 15.8878 17.5104 16.2391 17.5104 16.7024V20.56H15.308V16.7024C15.308 16.2391 15.1969 15.8878 14.9746 15.6529C14.7525 15.4159 14.4338 15.2974 14.0184 15.2974C13.6031 15.2974 13.277 15.4159 13.0404 15.6529C12.8037 15.8878 12.6854 16.2391 12.6854 16.7024V20.56C11.5642 20.56 10.443 20.56 9.32185 20.56V22.5H7.42022V20.56H2.67589L2.67273 19.1366L7.60808 13.6293H9.32185V18.9296H10.4829V13.6293V13.6293ZM7.42022 18.9296V16.1096L5.01416 18.9296H7.42022Z" fill="white"/>
</svg>
